<svg width="236" height="27" viewBox="0 0 236 27" fill="none" xmlns="http://www.w3.org/2000/svg">
<path d="M140.458 26.3963L127.846 9.94876V26.3963H122.19V0.521973H127.473L139.676 16.4538V0.521973H145.331V26.3963H140.458Z" fill="#105E7C"/>
<path d="M147.188 26.3963V0.521973H166.7V5.5858H152.813V10.8347H165.031V15.8985H152.813V21.3325H166.885V26.3963H147.188Z" fill="#105E7C"/>
<path d="M214.323 18.5594C213.655 20.1371 212.712 21.5024 211.489 22.6614C210.266 23.8204 208.81 24.7306 207.12 25.3981C205.43 26.0626 203.57 26.3963 201.546 26.3963H191.437V0.521973H201.546C203.57 0.521973 205.427 0.84965 207.12 1.50197C208.81 2.15429 210.266 3.06147 211.489 4.22048C212.712 5.37949 213.655 6.73874 214.323 8.30431C214.99 9.86988 215.324 11.5629 215.324 13.3863V13.4592C215.324 15.2826 214.99 16.9847 214.323 18.5594ZM209.362 13.4592C209.362 12.3244 209.171 11.2777 208.788 10.3159C208.406 9.35409 207.875 8.52883 207.196 7.8401C206.516 7.14834 205.697 6.61434 204.732 6.23205C203.77 5.84976 202.708 5.65862 201.549 5.65862H197.144V21.2567H201.549C202.708 21.2567 203.77 21.0716 204.732 20.7014C205.694 20.3313 206.516 19.8034 207.196 19.1116C207.875 18.4229 208.406 17.6097 208.788 16.6722C209.171 15.7377 209.362 14.6879 209.362 13.5289V13.4561V13.4592Z" fill="#105E7C"/>
<path d="M234.738 22.1639C234.271 23.1621 233.622 23.9995 232.788 24.6761C231.953 25.3557 230.958 25.8715 229.802 26.2295C228.646 26.5875 227.366 26.7665 225.958 26.7665C223.983 26.7665 222.044 26.4267 220.145 25.7501C218.242 25.0705 216.516 24.0298 214.959 22.6281L218.327 18.5989C219.514 19.5607 220.727 20.3252 221.974 20.8926C223.221 21.46 224.583 21.7421 226.067 21.7421C227.253 21.7421 228.17 21.5267 228.825 21.0959C229.48 20.6651 229.805 20.0673 229.805 19.3028V19.2269C229.805 18.8568 229.738 18.5321 229.602 18.2469C229.465 17.9617 229.204 17.6978 228.822 17.452C228.44 17.2062 227.906 16.9605 227.226 16.7117C226.547 16.4659 225.661 16.205 224.571 15.935C223.261 15.6164 222.071 15.2584 221.006 14.864C219.941 14.4695 219.037 13.981 218.297 13.4046C217.554 12.8251 216.98 12.106 216.571 11.2413C216.161 10.3796 215.958 9.30861 215.958 8.02521V7.95239C215.958 6.76911 216.179 5.70416 216.619 4.75451C217.059 3.80485 217.681 2.98566 218.476 2.29693C219.274 1.6082 220.224 1.07724 221.331 0.707086C222.438 0.336932 223.658 0.151855 224.99 0.151855C226.889 0.151855 228.637 0.437056 230.23 1.00139C231.823 1.56876 233.285 2.38188 234.617 3.44076L231.656 7.72787C230.494 6.93902 229.362 6.31704 228.249 5.86193C227.138 5.40683 226.028 5.17927 224.917 5.17927C223.807 5.17927 222.972 5.39469 222.417 5.82553C221.862 6.25636 221.583 6.79339 221.583 7.43357V7.50639C221.583 7.92509 221.665 8.28917 221.826 8.59865C221.986 8.90812 222.278 9.18422 222.699 9.42998C223.118 9.67573 223.695 9.90936 224.426 10.1308C225.157 10.3523 226.076 10.6102 227.193 10.9076C228.503 11.2534 229.675 11.6418 230.7 12.0726C231.726 12.5035 232.593 13.0223 233.297 13.6261C234.004 14.2298 234.535 14.9398 234.893 15.7499C235.251 16.563 235.43 17.537 235.43 18.6717V18.7445C235.43 20.0249 235.197 21.1657 234.732 22.1639H234.738Z" fill="#105E7C"/>
<path d="M183.827 26.3963L178.272 18.1164H173.79V26.3963H168.089V0.521973H179.937C183.023 0.521973 185.423 1.27442 187.14 2.77627C188.854 4.27813 189.713 6.37465 189.713 9.05979V9.1326C189.713 11.2261 189.2 12.9343 188.178 14.251C187.152 15.5678 185.814 16.5357 184.161 17.1516L190.493 26.3933H183.827V26.3963ZM183.939 9.35712C183.939 8.1253 183.545 7.20295 182.753 6.58704C181.964 5.97112 180.866 5.66165 179.458 5.66165H173.793V13.092H179.57C180.978 13.092 182.058 12.7583 182.811 12.0938C183.563 11.4294 183.939 10.5404 183.939 9.43297V9.35712Z" fill="#105E7C"/>
<path d="M23.0466 18.6471C22.3761 20.2369 21.4234 21.6174 20.1946 22.7855C18.9628 23.9536 17.4974 24.8729 15.7922 25.5465C14.0901 26.217 12.2181 26.5538 10.1792 26.5538H0V0.445801H10.1823C12.2211 0.445801 14.0901 0.776512 15.7953 1.4349C17.4974 2.09329 18.9658 3.00654 20.1977 4.17465C21.4295 5.34276 22.3791 6.71718 23.0497 8.29489C23.7202 9.87259 24.057 11.5838 24.057 13.4224V13.4983C24.057 15.3369 23.7202 17.0542 23.0497 18.644L23.0466 18.6471ZM18.0496 13.5013C18.0496 12.3575 17.8554 11.3016 17.4701 10.3307C17.0847 9.35984 16.5507 8.52851 15.865 7.83068C15.1793 7.13588 14.3541 6.59278 13.3862 6.20746C12.4153 5.82214 11.3473 5.63099 10.1792 5.63099H5.74042V21.3686H10.1792C11.3473 21.3686 12.4153 21.1835 13.3862 20.8103C14.3571 20.4371 15.1824 19.9032 15.865 19.2053C16.5477 18.5105 17.0817 17.6883 17.4701 16.7447C17.8554 15.8011 18.0496 14.7422 18.0496 13.5741V13.4983V13.5013Z" fill="#D92211"/>
<path d="M40.6865 26.5538L35.0918 18.2011H30.5801V26.5538H24.8367V0.445801H36.7696C39.8764 0.445801 42.2946 1.20431 44.024 2.72134C45.7504 4.23836 46.6151 6.35309 46.6151 9.0625V9.13532C46.6151 11.25 46.0993 12.9704 45.0677 14.3023C44.0361 15.6312 42.686 16.6082 41.0203 17.2302L47.3979 26.5538H40.6835H40.6865ZM40.7988 9.35984C40.7988 8.11588 40.4013 7.18442 39.6064 6.56244C38.8115 5.94046 37.7041 5.63099 36.2872 5.63099H30.5801V13.1281H36.3994C37.8163 13.1281 38.9025 12.7944 39.661 12.1208C40.4195 11.4503 40.7988 10.5553 40.7988 9.43569V9.35984Z" fill="#D92211"/>
<path d="M73.5059 18.7413C72.8111 20.3706 71.8463 21.7996 70.6144 23.0284C69.3826 24.2603 67.9172 25.2281 66.2151 25.9381C64.513 26.6481 62.6531 27 60.6385 27C58.6239 27 56.7731 26.645 55.0831 25.9381C53.3932 25.2281 51.9308 24.2724 50.702 23.0679C49.4702 21.8603 48.5144 20.4434 47.8287 18.8172C47.143 17.1879 46.8032 15.4433 46.8032 13.5774V13.5015C46.8032 11.6356 47.1521 9.891 47.8469 8.26171C48.5417 6.63243 49.5066 5.20339 50.7384 3.97157C51.9702 2.73975 53.4357 1.77188 55.1408 1.06192C56.8429 0.35195 58.7028 0 60.7174 0C62.732 0 64.5827 0.354984 66.2727 1.06192C67.9627 1.77188 69.4251 2.72761 70.6539 3.93516C71.8857 5.14271 72.8414 6.55961 73.5271 8.18586C74.2098 9.81515 74.5526 11.5597 74.5526 13.4257V13.5015C74.5526 15.3675 74.2037 17.112 73.5089 18.7413H73.5059ZM68.5452 13.5015C68.5452 12.382 68.3541 11.3261 67.9657 10.3309C67.5804 9.33577 67.0343 8.465 66.3243 7.71862C65.6143 6.97224 64.7769 6.38364 63.806 5.94674C62.8382 5.51287 61.7793 5.29442 60.6355 5.29442C59.4916 5.29442 58.4024 5.5068 57.4467 5.92853C56.4879 6.3533 55.6687 6.93584 54.9861 7.68221C54.3034 8.42859 53.7664 9.29329 53.381 10.2733C52.9957 11.2563 52.8015 12.3061 52.8015 13.4257V13.5015C52.8015 14.6211 52.9927 15.6769 53.381 16.6721C53.7664 17.6673 54.3125 18.538 55.0225 19.2844C55.7324 20.0308 56.5638 20.6224 57.5225 21.0563C58.4782 21.4902 59.5432 21.7086 60.7113 21.7086C61.8794 21.7086 62.911 21.4962 63.8819 21.0745C64.8528 20.6528 65.678 20.0672 66.3607 19.3208C67.0434 18.5744 67.5774 17.7128 67.9657 16.7297C68.351 15.7467 68.5452 14.6969 68.5452 13.5774V13.5015Z" fill="#D92211"/>
<path d="M94.1315 26.5538L81.4886 9.95754V26.5538H75.821V0.445801H81.1155L93.3487 16.5202V0.445801H99.0164V26.5508H94.1315V26.5538Z" fill="#D92211"/>
<path d="M100.694 26.5538V0.445801H120.348V5.55514H106.361V10.8526H118.668V15.9619H106.361V21.4445H120.533V26.5538H100.694Z" fill="#D92211"/>
</svg>
